
<svg width="32" height="32" viewBox="0 0 32 32" fill="none" xmlns="http://www.w3.org/2000/svg">
  <circle cx="16" cy="16" r="16" fill="#1EAEDB" opacity="0.2"/>
  <path
    d="M19.9379 7.1184C20.0732 7.00787 20.2377 6.9447 20.4098 6.93913C20.5818 6.93355 20.7496 6.98581 20.8914 7.0879C21.0331 7.18999 21.1422 7.33705 21.204 7.50827C21.2659 7.67949 21.2778 7.86599 21.2383 8.04456C20.4734 11.3446 21.3375 14.8353 23.5961 17.327C25.8547 19.8188 29.2388 21.019 32.5961 20.5046C32.7789 20.479 32.9657 20.5052 33.1334 20.5798C33.3011 20.6544 33.4417 20.7742 33.5353 20.9244C33.629 21.0746 33.6715 21.2486 33.6572 21.4232C33.6429 21.5978 33.5725 21.7635 33.4555 21.8976C31.9368 23.7069 29.9582 25.0726 27.7383 25.8524C25.5183 26.6323 23.1359 26.7986 20.8242 26.3346C18.5126 25.8706 16.353 24.8925 14.562 23.4033C12.771 21.914 11.4077 19.9636 10.6126 17.7507C9.81754 15.5378 9.61736 13.1387 10.0364 10.817C10.4554 8.49539 11.4769 6.3434 12.9996 4.57079C14.5222 2.79817 16.4934 1.46321 18.7116 0.700354C20.9297 -0.0624978 23.3175 -0.202935 25.6119 0.293042C25.7878 0.335049 25.9464 0.42857 26.0648 0.56054C26.1831 0.69251 26.2554 0.85704 26.2714 1.03122C26.2874 1.2054 26.2464 1.37926 26.1541 1.52959C26.0617 1.67992 25.9226 1.8002 25.7574 1.87613C22.7539 3.21788 20.5172 5.82077 19.9379 7.1184Z"
    fill="#1EAEDB"
  />
</svg>
